REM DIRINDEX 1\3,1\4,1\5,1\6,1\2\7,1\2\8,1\2\9,1\10
REM DIRNAME cjc056,folder01,folder02,folder03,folder04,folder05,folder06,folder07,folder08,folder09
TITLE ""
FILE "1-41 Level 2-clothing.mp3" MP3
  TRACK 01 AUDIO
    TITLE "0:"
    INDEX 01 00:00:00
  TRACK 02 AUDIO
    TITLE "5:cjc056_1187"
    INDEX 01 00:00:03
  TRACK 03 AUDIO
    TITLE "0:"
    INDEX 01 00:01:24
  TRACK 04 AUDIO
    TITLE "5:cjc056_1188"
    INDEX 01 00:02:42
  TRACK 05 AUDIO
    TITLE "0:"
    INDEX 01 00:03:41
  TRACK 06 AUDIO
    TITLE "5:cjc056_1189"
    INDEX 01 00:03:57
  TRACK 07 AUDIO
    TITLE "0:"
    INDEX 01 00:05:67
  TRACK 08 AUDIO
    TITLE "5:cjc056_1190"
    INDEX 01 00:06:39
  TRACK 09 AUDIO
    TITLE "0:"
    INDEX 01 00:07:39
  TRACK 10 AUDIO
    TITLE "5:cjc056_1191"
    INDEX 01 00:07:64
  TRACK 11 AUDIO
    TITLE "0:"
    INDEX 01 00:09:00
  TRACK 12 AUDIO
    TITLE "5:cjc056_1192"
    INDEX 01 00:09:49
  TRACK 13 AUDIO
    TITLE "0:"
    INDEX 01 00:10:57
  TRACK 14 AUDIO
    TITLE "5:cjc056_1193"
    INDEX 01 00:11:05
  TRACK 15 AUDIO
    TITLE "0:"
    INDEX 01 00:12:24
  TRACK 16 AUDIO
    TITLE "5:cjc056_1194"
    INDEX 01 00:12:71
  TRACK 17 AUDIO
    TITLE "0:"
    INDEX 01 00:13:71
  TRACK 18 AUDIO
    TITLE "5:cjc056_1195"
    INDEX 01 00:14:09
  TRACK 19 AUDIO
    TITLE "0:"
    INDEX 01 00:15:19
  TRACK 20 AUDIO
    TITLE "5:cjc056_1196"
    INDEX 01 00:15:66
  TRACK 21 AUDIO
    TITLE "0:"
    INDEX 01 00:16:65
  TRACK 22 AUDIO
    TITLE "5:cjc056_1197"
    INDEX 01 00:17:04
  TRACK 23 AUDIO
    TITLE "0:"
    INDEX 01 00:18:13
  TRACK 24 AUDIO
    TITLE "5:cjc056_1198"
    INDEX 01 00:18:62
  TRACK 25 AUDIO
    TITLE "0:"
    INDEX 01 00:19:62
  TRACK 26 AUDIO
    TITLE "5:cjc056_1199"
    INDEX 01 00:20:00
  TRACK 27 AUDIO
    TITLE "0:"
    INDEX 01 00:21:02
  TRACK 28 AUDIO
    TITLE "5:cjc056_1200"
    INDEX 01 00:21:49
  TRACK 29 AUDIO
    TITLE "0:"
    INDEX 01 00:22:48
  TRACK 30 AUDIO
    TITLE "5:cjc056_1201"
    INDEX 01 00:22:62
  TRACK 31 AUDIO
    TITLE "0:"
    INDEX 01 00:24:00
  TRACK 32 AUDIO
    TITLE "5:cjc056_1202"
    INDEX 01 00:24:49
  TRACK 33 AUDIO
    TITLE "0:"
    INDEX 01 00:25:48
  TRACK 34 AUDIO
    TITLE "5:cjc056_1203"
    INDEX 01 00:25:62
  TRACK 35 AUDIO
    TITLE "0:"
    INDEX 01 00:26:67
  TRACK 36 AUDIO
    TITLE "5:cjc056_1204"
    INDEX 01 00:27:41
  TRACK 37 AUDIO
    TITLE "0:"
    INDEX 01 00:28:33
  TRACK 38 AUDIO
    TITLE "5:cjc056_1205"
    INDEX 01 00:28:47
  TRACK 39 AUDIO
    TITLE "0:"
    INDEX 01 00:29:56
  TRACK 40 AUDIO
    TITLE "5:cjc056_1206"
    INDEX 01 00:30:30
  TRACK 41 AUDIO
    TITLE "0:"
    INDEX 01 00:31:33
  TRACK 42 AUDIO
    TITLE "5:cjc056_1207"
    INDEX 01 00:31:49
  TRACK 43 AUDIO
    TITLE "0:"
    INDEX 01 00:32:54
  TRACK 44 AUDIO
    TITLE "5:cjc056_1208"
    INDEX 01 00:33:28
  TRACK 45 AUDIO
    TITLE "0:"
    INDEX 01 00:34:36
  TRACK 46 AUDIO
    TITLE "5:cjc056_1209"
    INDEX 01 00:34:49
  TRACK 47 AUDIO
    TITLE "0:"
    INDEX 01 00:35:43
  TRACK 48 AUDIO
    TITLE "5:cjc056_1210"
    INDEX 01 00:36:17
  TRACK 49 AUDIO
    TITLE "0:"
    INDEX 01 00:37:26
  TRACK 50 AUDIO
    TITLE "5:cjc056_1211"
    INDEX 01 00:37:42
  TRACK 51 AUDIO
    TITLE "0:"
    INDEX 01 00:38:49
  TRACK 52 AUDIO
    TITLE "5:cjc056_1212"
    INDEX 01 00:39:21
  TRACK 53 AUDIO
    TITLE "0:"
    INDEX 01 00:40:21
  TRACK 54 AUDIO
    TITLE "5:cjc056_1213"
    INDEX 01 00:40:34
  TRACK 55 AUDIO
    TITLE "0:"
    INDEX 01 00:41:57
  TRACK 56 AUDIO
    TITLE "5:cjc056_1214"
    INDEX 01 00:42:31
  TRACK 57 AUDIO
    TITLE "0:"
    INDEX 01 00:43:33
  TRACK 58 AUDIO
    TITLE "5:cjc056_1215"
    INDEX 01 00:43:48
  TRACK 59 AUDIO
    TITLE "0:"
    INDEX 01 00:44:63
  TRACK 60 AUDIO
    TITLE "5:cjc056_1216"
    INDEX 01 00:45:39
  TRACK 61 AUDIO
    TITLE "0:"
    INDEX 01 00:46:47
  TRACK 62 AUDIO
    TITLE "5:cjc056_1217"
    INDEX 01 00:46:62
  TRACK 63 AUDIO
    TITLE "0:"
    INDEX 01 00:48:02
  TRACK 64 AUDIO
    TITLE "5:cjc056_1218"
    INDEX 01 00:48:51
  TRACK 65 AUDIO
    TITLE "0:"
    INDEX 01 00:49:51
  TRACK 66 AUDIO
    TITLE "5:cjc056_1219"
    INDEX 01 00:49:65
  TRACK 67 AUDIO
    TITLE "0:"
    INDEX 01 00:50:74
  TRACK 68 AUDIO
    TITLE "5:cjc056_1220"
    INDEX 01 00:51:46
  TRACK 69 AUDIO
    TITLE "0:"
    INDEX 01 00:52:39
  TRACK 70 AUDIO
    TITLE "5:cjc056_1221"
    INDEX 01 00:52:53
  TRACK 71 AUDIO
    TITLE "0:"
    INDEX 01 00:54:72
  TRACK 72 AUDIO
    TITLE "5:cjc056_1222"
    INDEX 01 00:55:44
  TRACK 73 AUDIO
    TITLE "0:"
    INDEX 01 00:56:45
  TRACK 74 AUDIO
    TITLE "5:cjc056_1223"
    INDEX 01 00:56:61
  TRACK 75 AUDIO
    TITLE "0:"
    INDEX 01 00:58:01
  TRACK 76 AUDIO
    TITLE "5:cjc056_1224"
    INDEX 01 00:58:50
  TRACK 77 AUDIO
    TITLE "0:"
    INDEX 01 00:59:51
  TRACK 78 AUDIO
    TITLE "5:cjc056_1225"
    INDEX 01 00:59:65
  TRACK 79 AUDIO
    TITLE "0:"
    INDEX 01 01:01:03
  TRACK 80 AUDIO
    TITLE "5:cjc056_1226"
    INDEX 01 01:01:52
  TRACK 81 AUDIO
    TITLE "0:"
    INDEX 01 01:02:57
  TRACK 82 AUDIO
    TITLE "5:cjc056_1227"
    INDEX 01 01:02:71
  TRACK 83 AUDIO
    TITLE "0:"
    INDEX 01 01:04:17
  TRACK 84 AUDIO
    TITLE "5:cjc056_1228"
    INDEX 01 01:04:64
  TRACK 85 AUDIO
    TITLE "0:"
    INDEX 01 01:05:71
  TRACK 86 AUDIO
    TITLE "5:cjc056_1229"
    INDEX 01 01:06:12
  TRACK 87 AUDIO
    TITLE "0:"
    INDEX 01 01:07:35
  TRACK 88 AUDIO
    TITLE "5:cjc056_1230"
    INDEX 01 01:08:09
  TRACK 89 AUDIO
    TITLE "0:"
    INDEX 01 01:09:14
  TRACK 90 AUDIO
    TITLE "5:cjc056_1231"
    INDEX 01 01:09:30
  TRACK 91 AUDIO
    TITLE "0:"
    INDEX 01 01:10:53
  TRACK 92 AUDIO
    TITLE "5:cjc056_1232"
    INDEX 01 01:11:27
  TRACK 93 AUDIO
    TITLE "0:"
    INDEX 01 01:12:44
  TRACK 94 AUDIO
    TITLE "5:cjc056_1233"
    INDEX 01 01:12:56
  TRACK 95 AUDIO
    TITLE "0:"
    INDEX 01 01:14:16
